<?xml version="1.0" standalone="no"?>
<!DOCTYPE svg PUBLIC "-//W3C//DTD SVG 20010904//EN"
 "http://www.w3.org/TR/2001/REC-SVG-20010904/DTD/svg10.dtd">
<svg version="1.0" xmlns="http://www.w3.org/2000/svg"
 width="450.000000pt" height="422.000000pt" viewBox="0 0 450.000000 422.000000"
 preserveAspectRatio="xMidYMid meet">

<g transform="translate(0.000000,422.000000) scale(0.100000,-0.100000)"
fill="#000000" stroke="none">
<path d="M2180 2885 c-9 -11 -10 -19 -2 -27 6 -6 9 -16 7 -22 -3 -6 12 -22 33
-35 57 -37 248 -152 334 -202 43 -24 77 -49 78 -54 0 -6 -42 -35 -92 -65 -51
-30 -104 -62 -118 -71 -14 -9 -45 -29 -70 -45 -25 -15 -47 -30 -49 -31 -3 -2
-6 -22 -7 -44 -2 -36 0 -39 20 -33 11 4 94 46 182 95 89 49 169 89 178 89 14
0 16 -14 16 -90 l0 -90 40 -25 c22 -14 44 -25 50 -25 6 0 10 61 10 169 0 162
-1 171 -22 195 -18 20 -511 302 -562 322 -7 3 -19 -2 -26 -11z"/>
<path d="M1105 2651 c-57 -23 -112 -59 -130 -84 -13 -18 -15 -94 -15 -524 l0
-503 28 -29 c34 -37 237 -145 253 -135 8 5 9 3 4 -6 -5 -8 -3 -11 6 -8 9 3 14
19 14 41 0 19 -1 34 -3 32 -2 -2 -15 8 -30 21 -14 14 -47 37 -74 51 -54 29
-59 44 -23 63 21 11 25 21 25 57 0 24 -2 43 -4 43 -2 0 -23 -9 -47 -19 -24
-11 -47 -17 -51 -15 -4 3 -8 187 -8 410 0 321 3 404 13 404 7 0 52 -21 101
-46 48 -25 89 -44 91 -42 4 4 8 47 6 68 -1 8 -18 26 -39 39 -93 61 -112 74
-112 81 0 3 11 13 25 20 21 11 25 20 23 57 -1 24 -4 43 -7 42 -3 -1 -24 -8
-46 -18z"/>
<path d="M2690 1935 l0 -245 40 -25 c22 -14 44 -25 50 -25 6 0 10 86 10 248
l0 247 -40 23 c-21 12 -44 22 -49 22 -8 0 -11 -80 -11 -245z"/>
<path d="M2427 1763 c-4 -3 -7 -13 -7 -21 0 -8 -8 -21 -17 -28 -22 -17 -23
-17 121 -99 58 -33 105 -64 105 -70 0 -5 -41 -35 -92 -65 -239 -142 -258 -158
-238 -212 6 -18 14 -15 93 26 288 152 398 224 398 261 0 7 -51 41 -112 76 -62
34 -141 80 -176 101 -69 42 -66 41 -75 31z"/>
</g>
</svg>
